<svg width="1000" height="1000" viewBox="0 0 1000 1000" xmlns="http://www.w3.org/2000/svg">
  <defs>
    <linearGradient id="ringGrad" gradientUnits="userSpaceOnUse" x1="690" y1="170" x2="330" y2="600">
      <stop offset="0" stop-color="#E5179E"/>
      <stop offset="0.42" stop-color="#7A2BE2"/>
      <stop offset="1" stop-color="#1E63EB"/>
    </linearGradient>
    <linearGradient id="tailGrad" gradientUnits="userSpaceOnUse" x1="610" y1="460" x2="800" y2="655">
      <stop offset="0" stop-color="#7A2BE2"/>
      <stop offset="0.55" stop-color="#E5179E"/>
      <stop offset="1" stop-color="#FF8A1E"/>
    </linearGradient>
    <linearGradient id="motionGrad" gradientUnits="userSpaceOnUse" x1="120" y1="300" x2="330" y2="470">
      <stop offset="0" stop-color="#1E63EB"/>
      <stop offset="1" stop-color="#7A2BE2"/>
    </linearGradient>
    <linearGradient id="voraGrad" gradientUnits="userSpaceOnUse" x1="520" y1="760" x2="900" y2="840">
      <stop offset="0" stop-color="#E5179E"/>
      <stop offset="0.55" stop-color="#8B2FD8"/>
      <stop offset="1" stop-color="#1E63EB"/>
    </linearGradient>
  </defs>

  <!-- ICON -->
  <circle cx="500" cy="385" r="196" fill="none" stroke="url(#ringGrad)" stroke-width="90"/>
  <path d="M595 450 L700 480 L805 655 L640 540 Z" fill="url(#tailGrad)"/>
  <circle cx="500" cy="385" r="150" fill="#FFFFFF"/>
  <circle cx="440" cy="380" r="15" fill="#F0179E"/>
  <circle cx="500" cy="380" r="15" fill="#7A2BE2"/>
  <circle cx="560" cy="380" r="15" fill="#22B0E8"/>

  <g fill="url(#motionGrad)">
    <rect x="150" y="300" width="190" height="26" rx="13"/>
    <rect x="120" y="352" width="220" height="26" rx="13"/>
    <rect x="145" y="404" width="150" height="26" rx="13"/>
  </g>
  <circle cx="152" cy="270" r="14" fill="#7A2BE2"/>
  <circle cx="140" cy="452" r="14" fill="#4A38E2"/>
  <circle cx="172" cy="492" r="14" fill="#2E56EB"/>

  <g stroke-linecap="round" fill="none">
    <line x1="722" y1="150" x2="748" y2="208" stroke="#F0179E" stroke-width="22"/>
    <line x1="800" y1="200" x2="838" y2="242" stroke="#FF8A1E" stroke-width="22"/>
    <line x1="820" y1="302" x2="882" y2="307" stroke="#22B0E8" stroke-width="22"/>
  </g>

  <!-- WORDMARK (outlined) -->
  <path d="M200.42199999999994 850.296 187.00599999999991 830.172Q181.32999999999993 831.204 175.48199999999994 831.204Q158.45399999999995 831.204 144.17799999999994 823.2059999999999Q129.90199999999993 815.208 121.55999999999995 801.018Q113.21799999999995 786.828 113.21799999999995 768.94Q113.21799999999995 751.052 121.55999999999995 736.8620000000001Q129.90199999999993 722.672 144.17799999999994 714.76Q158.45399999999995 706.848 175.48199999999994 706.848Q192.68199999999993 706.848 206.87199999999993 714.76Q221.06199999999993 722.672 229.31799999999993 736.8620000000001Q237.57399999999993 751.052 237.57399999999993 768.94Q237.57399999999993 783.904 231.55399999999992 796.546Q225.53399999999993 809.188 215.04199999999992 817.616L240.66999999999993 850.296ZM175.48199999999994 799.9Q188.38199999999995 799.9 195.86399999999995 791.472Q203.34599999999995 783.044 203.34599999999995 768.94Q203.34599999999995 754.492 195.86399999999995 746.15Q188.38199999999995 737.808 175.48199999999994 737.808Q162.40999999999994 737.808 155.01399999999995 746.15Q147.61799999999994 754.492 147.61799999999994 768.94Q147.61799999999994 783.216 155.01399999999995 791.558Q162.40999999999994 799.9 175.48199999999994 799.9Z M348.6099999999999 733.508V830.0H314.72599999999994V816.24Q310.42599999999993 822.776 302.85799999999995 826.818Q295.28999999999996 830.86 285.48599999999993 830.86Q268.62999999999994 830.86 258.9119999999999 819.7660000000001Q249.19399999999993 808.672 249.19399999999993 789.58V733.508H282.7339999999999V785.28Q282.7339999999999 793.5360000000001 287.1199999999999 798.2660000000001Q291.5059999999999 802.996 298.72999999999996 802.996Q306.1259999999999 802.996 310.42599999999993 798.2660000000001Q314.72599999999994 793.5360000000001 314.72599999999994 785.28V733.508Z M362.12199999999996 707.364Q362.12199999999996 699.796 367.53999999999996 694.808Q372.95799999999997 689.82 381.90199999999993 689.82Q390.674 689.82 396.092 694.808Q401.50999999999993 699.796 401.50999999999993 707.364Q401.50999999999993 714.76 396.092 719.662Q390.674 724.564 381.90199999999993 724.564Q372.95799999999997 724.564 367.53999999999996 719.662Q362.12199999999996 714.76 362.12199999999996 707.364ZM398.58599999999996 733.508V830.0H364.87399999999997V733.508Z M446.842 801.964H487.94999999999993V830.0H409.68999999999994V803.34L448.04599999999994 761.544H410.03399999999993V733.508H486.57399999999996V760.168Z" fill="#12103A"/>
  <path d="M545.322 798.18 563.382 733.508H599.3299999999999L566.134 830.0H524.1659999999999L490.96999999999997 733.508H526.918Z M602.178 781.668Q602.178 766.704 608.8 755.524Q615.4219999999999 744.344 626.8599999999999 738.3240000000001Q638.298 732.304 652.746 732.304Q667.194 732.304 678.632 738.3240000000001Q690.0699999999999 744.344 696.692 755.524Q703.314 766.704 703.314 781.668Q703.314 796.6320000000001 696.692 807.898Q690.0699999999999 819.164 678.5459999999999 825.184Q667.0219999999999 831.204 652.574 831.204Q638.126 831.204 626.688 825.184Q615.25 819.164 608.7139999999999 807.9839999999999Q602.178 796.804 602.178 781.668ZM669.086 781.668Q669.086 771.864 664.356 766.704Q659.626 761.544 652.746 761.544Q645.866 761.544 641.222 766.704Q636.578 771.864 636.578 781.668Q636.578 791.644 641.05 796.8040000000001Q645.5219999999999 801.964 652.574 801.964Q659.626 801.964 664.356 796.7180000000001Q669.086 791.472 669.086 781.668Z M778.918 732.648V768.596H769.458Q758.45 768.596 753.118 772.896Q747.7860000000001 777.196 747.7860000000001 787.86V830.0H714.074V733.508H747.7860000000001V750.5360000000001Q753.462 742.28 761.546 737.4639999999999Q769.63 732.648 778.918 732.648Z M823.562 732.304Q833.538 732.304 840.762 736.26Q847.986 740.216 851.942 746.924V733.508H885.654V830.0H851.942V816.584Q847.986 823.292 840.6759999999999 827.248Q833.366 831.204 823.562 831.204Q812.038 831.204 802.664 825.184Q793.29 819.164 787.8720000000001 807.898Q782.4540000000001 796.6320000000001 782.4540000000001 781.668Q782.4540000000001 766.704 787.8720000000001 755.524Q793.29 744.344 802.664 738.3240000000001Q812.038 732.304 823.562 732.304ZM834.398 761.716Q826.83 761.716 821.8420000000001 766.962Q816.854 772.208 816.854 781.668Q816.854 790.956 821.8420000000001 796.374Q826.83 801.792 834.398 801.792Q841.794 801.792 846.8679999999999 796.46Q851.942 791.128 851.942 781.668Q851.942 772.38 846.8679999999999 767.048Q841.794 761.716 834.398 761.716Z" fill="url(#voraGrad)"/>

  <!-- TAGLINE (outlined) -->
  <path d="M258.873 906.432H255.26899999999998V915.0H249.45499999999998V891.132H258.873Q261.729 891.132 263.701 892.1179999999999Q265.673 893.104 266.659 894.838Q267.645 896.572 267.645 898.816Q267.645 900.89 266.693 902.607Q265.741 904.324 263.769 905.3779999999999Q261.79699999999997 906.432 258.873 906.432ZM261.729 898.816Q261.729 897.388 260.913 896.606Q260.097 895.824 258.431 895.824H255.26899999999998V901.808H258.431Q260.097 901.808 260.913 901.0260000000001Q261.729 900.244 261.729 898.816Z M281.485 910.512H289.101V915.0H275.671V891.132H281.485Z M311.747 910.784H302.839L301.411 915.0H295.325L303.961 891.132H310.693L319.329 915.0H313.175ZM310.25100000000003 906.296 307.293 897.558 304.369 906.296Z M347.415 891.132 339.153 907.112V915.0H333.339V907.112L325.077 891.132H331.673L336.297 901.128L340.887 891.132Z" fill="#8B2FD8"/>
  <path d="M414.653 890.86Q418.903 890.86 421.929 893.104Q424.955 895.348 425.975 899.224H419.58299999999997Q418.86899999999997 897.728 417.55999999999995 896.9459999999999Q416.251 896.164 414.585 896.164Q411.899 896.164 410.233 898.034Q408.567 899.904 408.567 903.032Q408.567 906.16 410.233 908.03Q411.899 909.9 414.585 909.9Q416.251 909.9 417.55999999999995 909.1179999999999Q418.86899999999997 908.336 419.58299999999997 906.84H425.975Q424.955 910.716 421.929 912.943Q418.903 915.17 414.653 915.17Q411.185 915.17 408.448 913.623Q405.711 912.076 404.18100000000004 909.322Q402.651 906.568 402.651 903.032Q402.651 899.496 404.18100000000004 896.7249999999999Q405.711 893.954 408.448 892.4069999999999Q411.185 890.86 414.653 890.86Z M433.559 902.998Q433.559 899.496 435.208 896.708Q436.857 893.92 439.66200000000003 892.356Q442.467 890.792 445.833 890.792Q449.199 890.792 452.004 892.356Q454.809 893.92 456.424 896.708Q458.039 899.496 458.039 902.998Q458.039 906.5 456.40700000000004 909.3050000000001Q454.77500000000003 912.11 451.987 913.674Q449.199 915.238 445.833 915.238Q442.467 915.238 439.66200000000003 913.674Q436.857 912.11 435.208 909.3050000000001Q433.559 906.5 433.559 902.998ZM452.123 902.998Q452.123 899.836 450.406 897.9490000000001Q448.689 896.062 445.833 896.062Q442.943 896.062 441.226 897.932Q439.509 899.802 439.509 902.998Q439.509 906.16 441.226 908.047Q442.943 909.934 445.833 909.934Q448.689 909.934 450.406 908.03Q452.123 906.126 452.123 902.998Z M493.299 891.132V915.0H487.485V900.686L482.147 915.0H477.455L472.083 900.652V915.0H466.269V891.132H473.137L479.835 907.656L486.46500000000003 891.132Z M511.899 906.432H508.295V915.0H502.481V891.132H511.899Q514.755 891.132 516.727 892.1179999999999Q518.699 893.104 519.685 894.838Q520.671 896.572 520.671 898.816Q520.671 900.89 519.719 902.607Q518.7669999999999 904.324 516.795 905.3779999999999Q514.823 906.432 511.899 906.432ZM514.755 898.816Q514.755 897.388 513.9390000000001 896.606Q513.123 895.824 511.457 895.824H508.295V901.808H511.457Q513.123 901.808 513.9390000000001 901.0260000000001Q514.755 900.244 514.755 898.816Z M534.511 895.79V900.618H542.2969999999999V905.106H534.511V910.342H543.3169999999999V915.0H528.6969999999999V891.132H543.3169999999999V895.79Z M569.261 891.132V895.79H562.9369999999999V915.0H557.1229999999999V895.79H550.799V891.132Z M582.999 895.79V900.618H590.785V905.106H582.999V910.342H591.805V915.0H577.185V891.132H591.805V895.79Z" fill="#12103A"/>
  <path d="M691.769 891.132 685.547 915.0H678.509L674.701 899.292L670.7570000000001 915.0H663.719L657.667 891.132H663.889L667.323 908.506L671.573 891.132H677.965L682.045 908.506L685.513 891.132Z M705.5070000000001 891.132V915.0H699.693V891.132Z M736.075 915.0H730.261L720.537 900.278V915.0H714.723V891.132H720.537L730.261 905.922V891.132H736.075Z" fill="#F0179E"/>
  <g>
    <line x1="150" y1="905" x2="220" y2="905" stroke="#8B2FD8" stroke-width="5" stroke-linecap="round"/>
    <circle cx="377" cy="905" r="6" fill="#7A2BE2"/>
    <circle cx="627" cy="905" r="6" fill="#22B0E8"/>
    <line x1="775" y1="905" x2="845" y2="905" stroke="#FF8A1E" stroke-width="5" stroke-linecap="round"/>
  </g>
</svg>
